<svg xmlns="http://www.w3.org/2000/svg" width="106" height="29.17" viewBox="0 0 106 29.17"><g id="Layer_2" data-name="Layer 2"><g id="Layer_3" data-name="Layer 3"><path d="M10.71,22.16H5.08V5.94H0V1.34H15.78v4.6H10.71Z"/><path d="M31.79,5.85a5,5,0,0,1-1.18,3.33,6.74,6.74,0,0,1-3.42,2v.08c3.48.44,5.21,2.08,5.21,4.93a5.32,5.32,0,0,1-2.3,4.57,10.7,10.7,0,0,1-6.38,1.67,18.92,18.92,0,0,1-3.12-.24,16.76,16.76,0,0,1-3.09-.89V16.65a11.84,11.84,0,0,0,2.78,1A11.08,11.08,0,0,0,22.9,18a5.39,5.39,0,0,0,2.7-.52,1.77,1.77,0,0,0,.85-1.63A1.86,1.86,0,0,0,26,14.55a2.9,2.9,0,0,0-1.43-.7A11.18,11.18,0,0,0,22,13.62H20.74V9.39h1.31q4.29,0,4.29-2.2A1.34,1.34,0,0,0,25.7,6a3.12,3.12,0,0,0-1.7-.4,7.8,7.8,0,0,0-4.13,1.34L17.53,3.15a11.59,11.59,0,0,1,3.39-1.63,14.81,14.81,0,0,1,4-.48A8.76,8.76,0,0,1,30,2.32,4.07,4.07,0,0,1,31.79,5.85Z"/><path d="M43.43,1.34h7.26q4.25,0,6.31,1.26a4.27,4.27,0,0,1,2,3.92,5,5,0,0,1-.89,3,4,4,0,0,1-2.37,1.6v.14A4.84,4.84,0,0,1,58.6,13a5.16,5.16,0,0,1,.87,3.11,5.31,5.31,0,0,1-2.13,4.46,9.33,9.33,0,0,1-5.81,1.63h-8.1Zm5.62,8h1.7a3.06,3.06,0,0,0,1.87-.5,1.74,1.74,0,0,0,.66-1.48c0-1.17-.88-1.75-2.64-1.75H49.05Zm0,4.12v4.37h2q2.64,0,2.64-2.22A1.91,1.91,0,0,0,53,14a3.24,3.24,0,0,0-2-.55Z"/><path d="M68.33,22.16H62.76V0h5.57Z"/><path d="M87.6,14.06a8.52,8.52,0,0,1-2.13,6.17,7.87,7.87,0,0,1-6,2.22,7.73,7.73,0,0,1-5.85-2.27,8.46,8.46,0,0,1-2.17-6.12,8.4,8.4,0,0,1,2.13-6.13,7.94,7.94,0,0,1,6-2.19,8.53,8.53,0,0,1,4.2,1,6.92,6.92,0,0,1,2.82,2.9A9.37,9.37,0,0,1,87.6,14.06Zm-10.46,0a7.2,7.2,0,0,0,.56,3.17,1.94,1.94,0,0,0,1.86,1.09,1.87,1.87,0,0,0,1.83-1.09,7.38,7.38,0,0,0,.54-3.17,7,7,0,0,0-.54-3.12,2.14,2.14,0,0,0-3.69,0A6.89,6.89,0,0,0,77.14,14.06Z"/><path d="M106,6v2.7l-2.21.81a3.84,3.84,0,0,1,.46,1.92,4.86,4.86,0,0,1-1.83,4.05A8.72,8.72,0,0,1,97,16.94a6.73,6.73,0,0,1-1.43-.12,1.53,1.53,0,0,0-.2.7c0,.28.22.49.67.63a5.65,5.65,0,0,0,1.75.22h2.68q5.43,0,5.43,4.58a5.17,5.17,0,0,1-2.52,4.58,12.85,12.85,0,0,1-7,1.64A10.1,10.1,0,0,1,91,28a3.65,3.65,0,0,1-1.85-3.29c0-1.93,1.19-3.17,3.59-3.74a3,3,0,0,1-1.29-1,2.2,2.2,0,0,1-.55-1.38,2.26,2.26,0,0,1,.41-1.33A6.26,6.26,0,0,1,93,15.9a4.32,4.32,0,0,1-2-1.74,5.45,5.45,0,0,1-.72-2.88,5,5,0,0,1,1.8-4.09,7.93,7.93,0,0,1,5.12-1.45c.3,0,.81,0,1.53.1S100,6,100.37,6ZM93.84,24.17a1.25,1.25,0,0,0,.74,1.11,4.1,4.1,0,0,0,2,.42,8.55,8.55,0,0,0,3.24-.51c.81-.34,1.21-.77,1.21-1.3a.94.94,0,0,0-.74-.91,6.78,6.78,0,0,0-2.12-.26H96a2.61,2.61,0,0,0-1.51.42A1.2,1.2,0,0,0,93.84,24.17Zm1.75-12.86c0,1.65.57,2.48,1.72,2.48a1.44,1.44,0,0,0,1.23-.61A3.2,3.2,0,0,0,99,11.34c0-1.67-.56-2.51-1.67-2.51S95.59,9.66,95.59,11.31Z"/></g></g></svg>